<?xml version="1.0" standalone="no"?>
<!DOCTYPE svg PUBLIC "-//W3C//DTD SVG 20010904//EN"
 "http://www.w3.org/TR/2001/REC-SVG-20010904/DTD/svg10.dtd">
<svg version="1.0" xmlns="http://www.w3.org/2000/svg"
 width="1025.000000pt" height="1025.000000pt" viewBox="0 0 1025.000000 1025.000000"
 preserveAspectRatio="xMidYMid meet">

<g transform="translate(0.000000,1025.000000) scale(0.100000,-0.100000)"
fill="#000000" stroke="none">
<path d="M10 5130 l0 -5120 5120 0 5120 0 0 5120 0 5120 -5120 0 -5120 0 0
-5120z m7003 3395 c48 -192 68 -359 74 -615 3 -146 1 -281 -6 -355 -64 -661
-313 -1216 -778 -1732 l-83 -92 25 -103 c122 -514 -19 -1020 -394 -1411 -83
-87 -133 -106 -186 -71 -38 25 -44 58 -28 169 27 189 5 418 -59 609 -69 207
-173 373 -337 537 -195 194 -431 323 -683 374 -359 72 -682 13 -1020 -187 -75
-44 -109 -45 -146 -5 -44 49 -37 91 45 266 201 433 618 755 1088 838 l94 16
76 155 c186 381 367 636 649 918 409 407 869 651 1461 774 77 16 149 28 160
27 17 -2 25 -20 48 -112z m-2410 -2845 c261 -38 494 -231 576 -477 28 -83 44
-206 36 -266 -17 -136 -100 -322 -197 -443 -273 -345 -857 -492 -1398 -353
-130 34 -288 98 -391 159 -57 34 -70 46 -67 63 3 21 10 22 113 28 151 8 228
32 259 82 8 12 26 81 41 152 34 164 100 365 155 475 84 166 226 355 327 432
163 126 349 176 546 148z m-1008 -2315 c214 -45 387 -207 440 -411 19 -75 19
-233 0 -308 -65 -249 -302 -425 -573 -426 -341 -1 -602 250 -602 580 0 382
345 647 735 565z m1359 0 c90 -19 180 -62 236 -113 l45 -40 -39 -41 -40 -41
-25 23 c-72 66 -157 102 -268 112 -370 36 -632 -334 -474 -671 123 -264 498
-346 726 -159 l42 34 39 -40 39 -41 -45 -39 c-170 -150 -485 -170 -695 -44
-114 69 -191 161 -242 290 -24 63 -27 83 -27 200 -1 111 2 140 22 197 97 280
397 438 706 373z m-2599 -10 c146 -31 240 -100 294 -214 23 -49 26 -69 26
-161 0 -99 -2 -109 -33 -172 -37 -76 -99 -137 -167 -165 -25 -10 -45 -21 -45
-25 0 -4 51 -79 113 -165 62 -87 123 -173 135 -190 l23 -33 -69 0 -68 0 -128
180 -127 180 -200 0 -199 0 0 -180 0 -180 -60 0 -60 0 0 570 0 570 248 0 c179
0 266 -4 317 -15z m3255 -324 l0 -340 192 197 c106 108 256 261 333 340 l141
143 67 -3 67 -3 -237 -249 c-131 -137 -239 -254 -241 -260 -1 -6 112 -147 253
-313 140 -166 255 -304 255 -307 0 -3 -31 -6 -69 -6 l-69 0 -228 263 c-125
144 -229 264 -231 267 -2 2 -55 -47 -118 -110 l-115 -115 0 -153 0 -153 -62 3
-63 3 -3 555 c-1 305 0 561 3 568 3 8 26 12 65 12 l60 0 0 -339z m1810 284 l0
-55 -330 0 -330 0 0 -200 0 -200 295 0 295 0 0 -50 0 -50 -295 0 -295 0 0
-210 0 -210 340 0 340 0 0 -55 0 -55 -400 0 -400 0 0 570 0 570 390 0 390 0 0
-55z m1040 0 l0 -55 -195 0 -195 0 -2 -512 -3 -513 -62 -3 -63 -3 0 516 0 515
-200 0 -200 0 0 55 0 55 460 0 460 0 0 -55z m-2736 -1288 c11 -8 17 -23 14
-38 -2 -19 -10 -25 -35 -27 -28 -3 -33 0 -39 24 -5 20 -2 31 11 41 23 16 27
16 49 0z m-564 -172 c0 -158 2 -176 18 -182 46 -17 42 -53 -6 -53 -75 0 -77 4
-80 219 l-3 191 35 0 36 0 0 -175z m-880 95 c0 -28 2 -30 40 -30 36 0 40 -2
40 -25 0 -22 -4 -25 -40 -25 l-40 0 0 -95 c0 -68 3 -95 13 -97 6 -1 26 -2 42
-2 25 -1 30 -5 30 -26 0 -23 -4 -25 -51 -28 -38 -2 -56 2 -75 17 -22 18 -24
27 -27 125 -4 96 -6 106 -23 106 -14 0 -19 7 -19 25 0 18 5 25 20 25 14 0 20
7 20 23 0 31 7 37 42 37 24 0 28 -4 28 -30z m341 -46 c36 -18 69 -83 68 -134
-1 -94 -54 -150 -141 -150 -95 0 -142 50 -142 150 1 65 23 113 62 134 36 20
115 20 153 0z m360 -23 c38 -37 39 -41 39 -107 0 -110 -39 -153 -141 -154 -43
0 -63 5 -84 22 -76 60 -73 209 7 258 22 13 50 20 87 20 49 0 57 -3 92 -39z
m450 20 c23 -19 23 -19 5 -40 -17 -18 -21 -19 -39 -6 -43 30 -104 14 -92 -24
4 -15 18 -23 46 -27 22 -4 54 -16 72 -28 26 -18 33 -29 35 -64 3 -34 -2 -47
-23 -68 -24 -24 -32 -26 -96 -22 -55 3 -74 8 -91 26 l-22 22 22 23 c15 14 25
18 30 11 22 -33 91 -44 113 -18 20 24 0 46 -55 60 -92 24 -126 95 -71 149 20
21 34 25 83 25 44 0 66 -5 83 -19z m299 -131 l0 -150 -30 0 -30 0 0 150 0 150
30 0 30 0 0 -150z m290 135 c41 -21 64 -69 64 -135 0 -99 -47 -150 -139 -150
-84 0 -130 41 -142 125 -8 61 19 130 61 156 38 23 115 25 156 4z m-442 -214
c8 -5 12 -21 10 -37 -3 -32 -38 -45 -64 -24 -40 34 9 90 54 61z"/>
<path d="M6216 8000 c-126 -22 -260 -130 -308 -247 -19 -47 -23 -77 -23 -158
0 -88 3 -107 28 -159 55 -117 136 -189 255 -226 35 -11 88 -20 117 -20 29 0
82 9 117 20 119 37 200 109 255 226 25 52 28 71 28 159 0 125 -23 190 -97 270
-100 109 -235 158 -372 135z"/>
<path d="M4174 5442 c-81 -53 -154 -121 -210 -195 -84 -112 -121 -203 -210
-509 -29 -103 -65 -210 -79 -238 -14 -27 -22 -50 -19 -50 19 0 109 67 144 107
33 38 47 70 94 216 90 279 166 417 312 561 46 46 84 88 84 95 0 13 -36 51 -48
51 -5 0 -35 -17 -68 -38z"/>
<path d="M3344 3256 c-238 -55 -393 -282 -356 -524 50 -323 394 -495 693 -345
259 129 330 473 147 711 -99 128 -310 197 -484 158z"/>
<path d="M1910 2980 l0 -282 218 4 c201 3 221 5 268 26 107 48 157 129 157
254 0 92 -25 151 -85 202 -71 61 -108 69 -345 74 l-213 4 0 -282z"/>
<path d="M4512 1860 c-30 -13 -45 -55 -39 -110 8 -76 73 -105 122 -55 20 19
25 34 25 73 0 76 -48 116 -108 92z"/>
<path d="M4853 1860 c-30 -12 -43 -41 -43 -95 0 -62 35 -100 83 -91 51 10 75
56 63 119 -3 19 -12 41 -19 50 -15 20 -56 29 -84 17z"/>
<path d="M5913 1860 c-30 -12 -43 -41 -43 -95 0 -79 66 -121 121 -76 20 16 24
28 24 80 0 65 -12 86 -55 95 -14 3 -35 1 -47 -4z"/>
</g>
</svg>
